<svg xmlns="http://www.w3.org/2000/svg" viewBox="0 0 1260 246.62"><defs><style>.cls-1,.cls-2{fill:#fff;}.cls-2{stroke:#27aae1;stroke-linecap:round;stroke-linejoin:round;stroke-width:0;}</style></defs><title>white_H</title><g id="design"><path class="cls-1" d="M281,155.14V96.78h27.31v58.36c0,10.64,5.17,20.12,18,20.12s17.82-9.49,17.82-20.12V96.78h27.31v58.36c0,28.46-18.54,44.7-45.14,44.7S281,183.6,281,155.14Z"/><path class="cls-1" d="M424.56,96.78h37.51c26.45,0,43.12,15.38,43.12,35.79,0,13.08-6.75,23.86-18.4,30l21.56,34.78H478l-16.82-29.18h-9.34v29.18H424.56Zm34.5,50.45c14.66,0,18.26-8.62,18.26-14.8s-3.74-14.66-18.26-14.66h-7.19v29.47Z"/><path class="cls-1" d="M558,96.78h69.71v23h-42.4v18.83h35.79v21H585.27v37.8H558Z"/><path class="cls-1" d="M667.34,177.41l17-14.23c8.48,11.36,17.39,15.38,26.59,15.38,9.63,0,14.81-4.46,14.81-9.49,0-6-7.91-8.91-15.81-11.36-13.51-4.31-33.63-9.2-33.63-32.77,0-20,14.52-31,36.65-31,17.1,0,30.47,6.61,38.66,17.1l-15.09,14.52c-6.47-6.61-14.09-10.35-23.14-10.35-7.62,0-12.22,2.59-12.22,7.91,0,4.89,3.88,6.76,17.54,11.36,15.24,5,34.07,10.92,34.07,32.2,0,20.55-17.39,33.2-41,33.2C694.8,199.84,679,193.22,667.34,177.41Z"/><path class="cls-1" d="M801.74,96.78h37.52c26.45,0,43.12,15.38,43.12,35.79,0,20.7-16.82,35.65-43.55,35.65h-9.77v29.18H801.74Zm34.5,50.45c14.66,0,18.25-8.62,18.25-14.8s-3.74-14.66-18.25-14.66h-7.19v29.47Z"/><path class="cls-1" d="M1046.69,146.94c0-30.76,24-53,55.63-53,13.65,0,26.88,4.17,36.8,13.51L1125.17,127c-6.9-5.32-15.09-8.48-23.29-8.48-16.53,0-27.45,12.5-27.45,28.46,0,16.67,11.93,28.31,27.31,28.31,9.34,0,19-4.46,25.87-10.2L1141,184.6c-10.49,10.06-24.29,15.24-39.1,15.24C1070.69,199.84,1046.69,177.7,1046.69,146.94Z"/><path class="cls-1" d="M1188.85,96.78h69.71v23h-42.4v18.83h36.65v21h-36.65v14.8H1260v23h-71.15Z"/><path class="cls-1" d="M1014.19,197.39l-11.86-24.12.1-.24-.27-.1-38.85-79H961l-38.82,79-.44.17.16.4-11.78,24h28.32l3.47-8.4a83.86,83.86,0,0,1,40.38,0l3.44,8.4Zm-62.61-31.85,10.58-25.64,10.52,25.65A105.44,105.44,0,0,0,951.59,165.54Z"/><path class="cls-1" d="M13.11,230.64h0l-.44-5.47Z"/><path class="cls-1" d="M113.55,203.26c-58.71,0-101.61,14.13-101.51,14h0l.63,7.89.44,5.47,1.28,16H212.71l2.35-29.35h0C215.17,217.39,172.26,203.26,113.55,203.26Z"/><path class="cls-2" d="M215.36,213.55v.1"/><path class="cls-2" d="M11.75,213.64v-.1"/><path class="cls-1" d="M113.55,0,0,66.79S11.34,208.68,11.41,209.31c.42-.14,35.55-17.54,86.9-20.6l-4.1-76.08a342.61,342.61,0,0,0-35.14,3.72L54.6,88.2a371.12,371.12,0,0,1,116.11,0l-4.46,28.15a342.63,342.63,0,0,0-35.14-3.72l-4.1,76c52.3,2.75,88.2,20.53,88.68,20.7L227.11,66.79Z"/></g></svg>