<svg height="511pt" viewBox="-79 0 511 511.94701" width="511pt" xmlns="http://www.w3.org/2000/svg"><path d="m353.578125 17.882812v476.179688c.035156 3.585938-2.101563 6.835938-5.410156 8.226562-3.304688 1.386719-7.125.636719-9.660157-1.898437l-22.828124-23.152344c-1.644532-1.679687-3.890626-2.625-6.238282-2.625-2.351562 0-4.597656.945313-6.242187 2.625l-31.65625 32.085938c-1.644531 1.679687-3.894531 2.621093-6.242188 2.621093-2.347656 0-4.597656-.941406-6.242187-2.621093l-31.652344-32.113281c-1.644531-1.675782-3.894531-2.621094-6.242188-2.621094-2.347656 0-4.597656.945312-6.242187 2.621094l-31.65625 32.113281c-1.640625 1.679687-3.890625 2.621093-6.238281 2.621093-2.351563 0-4.597656-.941406-6.242188-2.621093l-31.65625-32.113281c-1.644531-1.675782-3.894531-2.621094-6.242187-2.621094-2.347657 0-4.597657.945312-6.238281 2.621094l-31.65625 32.113281c-1.644532 1.679687-3.894532 2.621093-6.242188 2.621093s-4.597656-.941406-6.242188-2.621093l-31.65625-32.113281c-1.640624-1.675782-3.890624-2.621094-6.238281-2.621094-2.347656 0-4.597656.945312-6.242187 2.621094l-22.828125 23.152343c-2.53125 2.535157-6.34375 3.285157-9.648438 1.902344-3.304687-1.382813-5.445312-4.621094-5.421875-8.203125v-476.179688c-.035156-3.585937 2.105469-6.835937 5.410156-8.222656 3.304688-1.390625 7.125-.640625 9.660157 1.894532l22.828125 23.15625c1.644531 1.675781 3.894531 2.621093 6.242187 2.621093 2.347657 0 4.597657-.945312 6.238281-2.621093l31.65625-32.089844c1.644532-1.675782 3.894532-2.621094 6.242188-2.621094s4.597656.945312 6.242188 2.621094l31.65625 32.117187c1.640624 1.675781 3.890624 2.621094 6.238281 2.621094 2.347656 0 4.597656-.945313 6.242187-2.621094l31.65625-32.117187c1.644532-1.675782 3.890625-2.621094 6.242188-2.621094 2.347656 0 4.597656.945312 6.238281 2.621094l31.65625 32.117187c1.644531 1.675781 3.894531 2.621094 6.242187 2.621094 2.347657 0 4.597657-.945313 6.242188-2.621094l31.652344-32.117187c1.644531-1.675782 3.894531-2.621094 6.242187-2.621094 2.347657 0 4.597657.945312 6.242188 2.621094l31.65625 32.117187c1.644531 1.675781 3.890625 2.621094 6.242187 2.621094 2.347656 0 4.59375-.945313 6.238282-2.621094l22.828124-23.15625c2.535157-2.53125 6.34375-3.285156 9.648438-1.902343 3.304688 1.382812 5.445312 4.625 5.421875 8.203124zm0 0" fill="#7ed09e"/><g fill="#4c8056"><path d="m53.441406 105.90625c-2.34375-.003906-4.589844-.933594-6.242187-2.589844l-17.65625-17.652344c-3.34375-3.464843-3.296875-8.972656.109375-12.375 3.402344-3.40625 8.910156-3.453124 12.371094-.109374l17.65625 17.65625c2.523437 2.523437 3.28125 6.320312 1.914062 9.617187-1.367188 3.300781-4.585938 5.449219-8.152344 5.453125zm0 0"/><path d="m35.785156 105.90625c-3.570312-.003906-6.789062-2.152344-8.15625-5.453125-1.363281-3.296875-.609375-7.09375 1.914063-9.617187l17.65625-17.65625c3.464843-3.34375 8.96875-3.296876 12.375.109374 3.402343 3.402344 3.453125 8.910157.105469 12.375l-17.65625 17.652344c-1.652344 1.65625-3.898438 2.585938-6.238282 2.589844zm0 0"/><path d="m318.265625 105.90625c-2.339844-.003906-4.585937-.933594-6.238281-2.589844l-17.65625-17.652344c-3.347656-3.464843-3.296875-8.972656.105468-12.375 3.40625-3.40625 8.914063-3.453124 12.375-.109374l17.65625 17.65625c2.523438 2.523437 3.277344 6.320312 1.914063 9.617187-1.367187 3.300781-4.585937 5.449219-8.15625 5.453125zm0 0"/><path d="m300.613281 105.90625c-3.570312-.003906-6.789062-2.152344-8.15625-5.453125-1.363281-3.296875-.609375-7.09375 1.914063-9.617187l17.65625-17.65625c3.460937-3.34375 8.96875-3.296876 12.375.109374 3.402344 3.402344 3.453125 8.910157.105468 12.375l-17.65625 17.652344c-1.652343 1.65625-3.898437 2.585938-6.238281 2.589844zm0 0"/><path d="m88.75 132.386719c-4.875 0-8.828125-3.953125-8.828125-8.828125v-52.964844c0-4.875 3.953125-8.828125 8.828125-8.828125s8.828125 3.953125 8.828125 8.828125v52.964844c0 4.875-3.953125 8.828125-8.828125 8.828125zm0 0"/><path d="m115.234375 114.730469h-26.484375c-4.875 0-8.828125-3.949219-8.828125-8.824219v-35.3125c0-4.875 3.953125-8.828125 8.828125-8.828125h26.484375c9.75 0 17.652344 7.90625 17.652344 17.65625v17.65625c0 9.75-7.902344 17.652344-17.652344 17.652344zm-17.65625-17.652344h17.65625v-17.65625h-17.65625zm0 0"/><path d="m185.851562 132.386719c-4.875 0-8.824218-3.953125-8.824218-8.828125v-44.136719h-17.65625v44.136719c0 4.875-3.953125 8.828125-8.828125 8.828125s-8.828125-3.953125-8.828125-8.828125v-44.136719c0-9.75 7.90625-17.65625 17.65625-17.65625h17.65625c9.75 0 17.652344 7.90625 17.652344 17.65625v44.136719c0 4.875-3.949219 8.828125-8.828126 8.828125zm0 0"/><path d="m185.851562 114.730469h-35.308593c-4.875 0-8.828125-3.949219-8.828125-8.824219 0-4.878906 3.953125-8.828125 8.828125-8.828125h35.308593c4.878907 0 8.828126 3.949219 8.828126 8.828125 0 4.875-3.949219 8.824219-8.828126 8.824219zm0 0"/><path d="m212.335938 132.386719c-4.875 0-8.828126-3.953125-8.828126-8.828125v-52.964844c0-4.875 3.953126-8.828125 8.828126-8.828125s8.828124 3.953125 8.828124 8.828125v52.964844c0 4.875-3.953124 8.828125-8.828124 8.828125zm0 0"/><path d="m256.472656 132.386719h-17.652344c-4.875 0-8.828124-3.953125-8.828124-8.828125v-52.964844c0-4.875 3.953124-8.828125 8.828124-8.828125h17.652344c14.628906 0 26.484375 11.859375 26.484375 26.484375v17.65625c0 14.625-11.855469 26.480469-26.484375 26.480469zm-8.828125-17.65625h8.828125c4.875 0 8.828125-3.949219 8.828125-8.824219v-17.65625c0-4.875-3.953125-8.828125-8.828125-8.828125h-8.828125zm0 0"/></g><path d="m44.613281 158.871094h114.757813c4.875 0 8.828125 3.953125 8.828125 8.828125v17.652343c0 4.875-3.953125 8.828126-8.828125 8.828126h-114.757813c-4.875 0-8.828125-3.953126-8.828125-8.828126v-17.652343c0-4.875 3.953125-8.828125 8.828125-8.828125zm0 0" fill="#bbd1b5"/><path d="m212.335938 158.871094h97.105468c4.875 0 8.824219 3.953125 8.824219 8.828125v17.652343c0 4.875-3.949219 8.828126-8.824219 8.828126h-97.105468c-4.875 0-8.828126-3.953126-8.828126-8.828126v-17.652343c0-4.875 3.953126-8.828125 8.828126-8.828125zm0 0" fill="#bbd1b5"/><path d="m44.613281 229.492188h114.757813c4.875 0 8.828125 3.949218 8.828125 8.824218v17.65625c0 4.875-3.953125 8.828125-8.828125 8.828125h-114.757813c-4.875 0-8.828125-3.953125-8.828125-8.828125v-17.65625c0-4.875 3.953125-8.824218 8.828125-8.824218zm0 0" fill="#bbd1b5"/><path d="m212.335938 229.492188h97.105468c4.875 0 8.824219 3.949218 8.824219 8.824218v17.65625c0 4.875-3.949219 8.828125-8.824219 8.828125h-97.105468c-4.875 0-8.828126-3.953125-8.828126-8.828125v-17.65625c0-4.875 3.953126-8.824218 8.828126-8.824218zm0 0" fill="#bbd1b5"/><path d="m44.613281 300.113281h114.757813c4.875 0 8.828125 3.949219 8.828125 8.824219v17.65625c0 4.875-3.953125 8.828125-8.828125 8.828125h-114.757813c-4.875 0-8.828125-3.953125-8.828125-8.828125v-17.65625c0-4.875 3.953125-8.824219 8.828125-8.824219zm0 0" fill="#bbd1b5"/><path d="m212.335938 300.113281h97.105468c4.875 0 8.824219 3.949219 8.824219 8.824219v17.65625c0 4.875-3.949219 8.828125-8.824219 8.828125h-97.105468c-4.875 0-8.828126-3.953125-8.828126-8.828125v-17.65625c0-4.875 3.953126-8.824219 8.828126-8.824219zm0 0" fill="#bbd1b5"/><path d="m141.714844 370.730469h167.726562c4.875 0 8.824219 3.953125 8.824219 8.828125v44.140625c0 4.875-3.949219 8.824219-8.824219 8.824219h-167.726562c-4.875 0-8.828125-3.949219-8.828125-8.824219v-44.140625c0-4.875 3.953125-8.828125 8.828125-8.828125zm0 0" fill="#f5efca"/></svg>